<svg width="27" height="27" viewBox="0 0 27 27" fill="none" xmlns="http://www.w3.org/2000/svg">
<path d="M23.8887 5.94844L13.7637 2.57344C13.5919 2.52057 13.4082 2.52057 13.2364 2.57344L3.12191 5.94844H3.10082L2.99535 6.00117H2.9848L2.87933 6.06445C2.87933 6.075 2.86879 6.075 2.85824 6.08554L2.77387 6.15937L2.70004 6.24375C2.70004 6.25429 2.68949 6.25429 2.68949 6.26484L2.62621 6.35976C2.62621 6.37031 2.62621 6.37031 2.61566 6.38086L2.57347 6.47578L2.54183 6.59179V6.62344C2.53143 6.66476 2.52787 6.70752 2.53129 6.75V15.1875C2.53129 15.4113 2.62018 15.6259 2.77842 15.7841C2.93665 15.9424 3.15126 16.0312 3.37504 16.0312C3.59881 16.0312 3.81342 15.9424 3.97166 15.7841C4.12989 15.6259 4.21879 15.4113 4.21879 15.1875V7.9207L7.76254 9.10195C7.09678 10.1676 6.74578 11.3997 6.75004 12.6562C6.75043 13.799 7.04094 14.923 7.59434 15.9228C8.14775 16.9226 8.94594 17.7656 9.9141 18.3727C7.90218 19.1338 6.18457 20.5152 5.0098 22.3172C4.89006 22.5065 4.84949 22.7353 4.89684 22.9543C4.94419 23.1733 5.07566 23.3649 5.26293 23.4879C5.35483 23.5488 5.4579 23.5908 5.56617 23.6116C5.67444 23.6324 5.78575 23.6314 5.89366 23.6089C6.00157 23.5863 6.10393 23.5426 6.19481 23.4802C6.28569 23.4177 6.36328 23.3379 6.42308 23.2453C7.18892 22.0656 8.2375 21.0961 9.47347 20.4249C10.7094 19.7538 12.0936 19.4022 13.5 19.4022C14.9065 19.4022 16.2906 19.7538 17.5266 20.4249C18.7626 21.0961 19.8112 22.0656 20.577 23.2453C20.654 23.3623 20.7589 23.4582 20.8823 23.5245C21.0057 23.5908 21.1436 23.6253 21.2836 23.625C21.4453 23.6267 21.6035 23.5789 21.7371 23.4879C21.9244 23.3649 22.0559 23.1733 22.1032 22.9543C22.1506 22.7353 22.11 22.5065 21.9903 22.3172C20.8155 20.5152 19.0979 19.1338 17.086 18.3727C18.0541 17.7656 18.8523 16.9226 19.4057 15.9228C19.9591 14.923 20.2497 13.799 20.25 12.6562C20.2543 11.3997 19.9033 10.1676 19.2375 9.10195L23.8887 7.55156C24.0575 7.49608 24.2045 7.38871 24.3087 7.24478C24.4129 7.10085 24.469 6.92769 24.469 6.75C24.469 6.57231 24.4129 6.39915 24.3087 6.25522C24.2045 6.11128 24.0575 6.00392 23.8887 5.94844ZM18.5625 12.6562C18.5625 13.9989 18.0292 15.2866 17.0798 16.236C16.1304 17.1854 14.8427 17.7187 13.5 17.7187C12.1574 17.7187 10.8697 17.1854 9.92031 16.236C8.97091 15.2866 8.43754 13.9989 8.43754 12.6562C8.43957 11.576 8.78286 10.5239 9.4184 9.65039L13.2364 10.9266C13.4076 10.9829 13.5924 10.9829 13.7637 10.9266L17.5817 9.65039C18.2172 10.5239 18.5605 11.576 18.5625 12.6562ZM17.5817 7.87851H17.5711L13.5 9.23906L9.42894 7.87851H9.4184L6.0434 6.75L13.5 4.26094L20.9567 6.75L17.5817 7.87851Z" fill="black"/>
</svg>
